<?xml version="1.0" encoding="UTF-8"?>
<svg version="1.1" xmlns="http://www.w3.org/2000/svg" width="32" height="32">
<path d="M0 0 C1.2065625 0.0309375 1.2065625 0.0309375 2.4375 0.0625 C2.7675 1.7125 3.0975 3.3625 3.4375 5.0625 C4.7575 5.3925 6.0775 5.7225 7.4375 6.0625 C8.63935734 23.91866617 8.63935734 23.91866617 4.75 29.1875 C0.4375 32.0625 0.4375 32.0625 -12.5625 32.0625 C-12.5625 23.4825 -12.5625 14.9025 -12.5625 6.0625 C-9.9225 6.0625 -7.2825 6.0625 -4.5625 6.0625 C-4.2325 10.3525 -3.9025 14.6425 -3.5625 19.0625 C-3.57410156 17.77472656 -3.58570313 16.48695312 -3.59765625 15.16015625 C-3.6070327 13.48177228 -3.61613305 11.80338674 -3.625 10.125 C-3.63337891 9.27486328 -3.64175781 8.42472656 -3.65039062 7.54882812 C-3.65361328 6.73994141 -3.65683594 5.93105469 -3.66015625 5.09765625 C-3.66539307 4.3487915 -3.67062988 3.59992676 -3.67602539 2.82836914 C-3.49028527 -0.06078847 -2.89596652 0.07063333 0 0 Z M-1.5625 3.0625 C-1.5625 4.0525 -1.5625 5.0425 -1.5625 6.0625 C-0.9025 6.0625 -0.2425 6.0625 0.4375 6.0625 C0.4375 5.0725 0.4375 4.0825 0.4375 3.0625 C-0.2225 3.0625 -0.8825 3.0625 -1.5625 3.0625 Z " fill="#332B6A" transform="translate(18.5625,-0.0625)"/>
<path d="M0 0 C1.2065625 0.0309375 1.2065625 0.0309375 2.4375 0.0625 C3.32027755 4.58065281 3.54339503 8.83762694 3.5 13.4375 C3.49097656 14.68273438 3.48195313 15.92796875 3.47265625 17.2109375 C3.46105469 18.15195312 3.44945312 19.09296875 3.4375 20.0625 C1.0625 20.6875 1.0625 20.6875 -1.5625 21.0625 C-3.5625 19.0625 -3.5625 19.0625 -3.80541992 17.19897461 C-3.80131104 16.46171143 -3.79720215 15.72444824 -3.79296875 14.96484375 C-3.79103516 14.16369141 -3.78910156 13.36253906 -3.78710938 12.53710938 C-3.77486328 11.69986328 -3.76261719 10.86261719 -3.75 10 C-3.74935547 9.15888672 -3.74871094 8.31777344 -3.74804688 7.45117188 C-3.69466289 0.09011373 -3.69466289 0.09011373 0 0 Z M-1.5625 3.0625 C-1.5625 4.0525 -1.5625 5.0425 -1.5625 6.0625 C-0.9025 6.0625 -0.2425 6.0625 0.4375 6.0625 C0.4375 5.0725 0.4375 4.0825 0.4375 3.0625 C-0.2225 3.0625 -0.8825 3.0625 -1.5625 3.0625 Z " fill="#33428E" transform="translate(18.5625,-0.0625)"/>
<path d="M0 0 C2.64 0 5.28 0 8 0 C8 3.63 8 7.26 8 11 C5.36 11 2.72 11 0 11 C0 7.37 0 3.74 0 0 Z " fill="#33428E" transform="translate(6,6)"/>
<path d="M0 0 C0.33 0 0.66 0 1 0 C1 4.62 1 9.24 1 14 C-0.65 14.33 -2.3 14.66 -4 15 C-4.66 13.68 -5.32 12.36 -6 11 C-4.02 11 -2.04 11 0 11 C0 7.37 0 3.74 0 0 Z " fill="#514673" transform="translate(21,6)"/>
<path d="M0 0 C2 1 2 1 3 3 C2.34 3 1.68 3 1 3 C0.67 7.62 0.34 12.24 0 17 C-0.33 17 -0.66 17 -1 17 C-1.02684679 14.35409986 -1.04676357 11.70846904 -1.0625 9.0625 C-1.07087891 8.30775391 -1.07925781 7.55300781 -1.08789062 6.77539062 C-1.09652441 4.85005687 -1.05224333 2.92464419 -1 1 C-0.67 0.67 -0.34 0.34 0 0 Z " fill="#3D4C96" transform="translate(16,0)"/>
<path d="M0 0 C0.33 0.99 0.66 1.98 1 3 C0.67 3.66 0.34 4.32 0 5 C-3.875 3.25 -3.875 3.25 -5 1 C-3.35 0.67 -1.7 0.34 0 0 Z " fill="#28204B" transform="translate(21,20)"/>
</svg>
